<svg xmlns="http://www.w3.org/2000/svg" viewBox="2828 2473 251 47.5">
  <defs>
    <style>
      .cls-1 {
        fill: #fff;
      }

      .cls-2 {
        fill: #f4c3c3;
      }
    </style>
  </defs>
  <g id="Group_21" data-name="Group 21" transform="translate(1990)">
    <circle id="Ellipse_5" data-name="Ellipse 5" class="cls-1" cx="23.5" cy="23.5" r="23.5" transform="translate(838 2473)"/>
    <circle id="Ellipse_6" data-name="Ellipse 6" class="cls-1" cx="23.5" cy="23.5" r="23.5" transform="translate(905 2473)"/>
    <circle id="Ellipse_7" data-name="Ellipse 7" class="cls-1" cx="23.5" cy="23.5" r="23.5" transform="translate(972 2473)"/>
    <path id="Path_23" data-name="Path 23" class="cls-1" d="M23.5,0A23.5,23.5,0,1,1,0,23.5,23.5,23.5,0,0,1,23.5,0Z" transform="translate(1042 2473.5)"/>
    <path id="twitter" class="cls-2" d="M24.3,5.247A10.285,10.285,0,0,1,21.436,6a4.854,4.854,0,0,0,2.192-2.654,10.228,10.228,0,0,1-3.166,1.164A5.072,5.072,0,0,0,16.823,3a4.893,4.893,0,0,0-4.985,4.8,4.633,4.633,0,0,0,.129,1.093A14.346,14.346,0,0,1,1.692,3.875a4.638,4.638,0,0,0-.675,2.412A4.75,4.75,0,0,0,3.235,10.28a5.115,5.115,0,0,1-2.258-.6c0,.02,0,.04,0,.061a4.85,4.85,0,0,0,4,4.7,5.187,5.187,0,0,1-2.251.082A4.97,4.97,0,0,0,7.38,17.857,10.255,10.255,0,0,1,1.188,19.91,10.474,10.474,0,0,1,0,19.843,14.513,14.513,0,0,0,7.641,22,13.81,13.81,0,0,0,21.825,8.35q0-.312-.014-.62A9.932,9.932,0,0,0,24.3,5.247Z" transform="translate(849.001 2484.002)"/>
    <path id="tumblr" class="cls-2" d="M20.431,22.08a12.888,12.888,0,0,1-2.521.934,10.66,10.66,0,0,1-2.443.267,8.39,8.39,0,0,1-2.636-.38,5.694,5.694,0,0,1-1.955-1.086,3.954,3.954,0,0,1-1.122-1.5,6.6,6.6,0,0,1-.312-2.3V10.295H7.04V7.181A6.313,6.313,0,0,0,9.234,5.974,6.023,6.023,0,0,0,10.7,4.085a8.655,8.655,0,0,0,.761-2.8h3.091V6.843H19.71v3.452H14.552v5.642a9.069,9.069,0,0,0,.2,2.457,1.66,1.66,0,0,0,.744.867,3.128,3.128,0,0,0,1.651.439,5.891,5.891,0,0,0,3.284-1.086v3.466Z" transform="translate(914.96 2484.719)"/>
    <path id="facebook" class="cls-2" d="M59.661,50.811V38.153H56.044V33.678h3.617V29.971c0-3.913,2.191-6.661,6.81-6.661l3.261,0v4.711H67.568a2.389,2.389,0,0,0-2.481,2.6V33.68h4.644L68.7,38.153H65.087V50.811Z" transform="translate(932.956 2459.69)"/>
    <path id="instagram" class="cls-2" d="M22.389,1.6H4.2A2.606,2.606,0,0,0,1.6,4.2v18.19a2.605,2.605,0,0,0,2.6,2.6h18.19a2.605,2.605,0,0,0,2.6-2.6V4.2a2.606,2.606,0,0,0-2.6-2.6ZM13.272,20.47a7.2,7.2,0,0,0,7.2-7.2A6.9,6.9,0,0,0,20.334,12h2.055v9.376a.9.9,0,0,1-.9.9H5.1a.9.9,0,0,1-.9-.9V12H6.211a6.769,6.769,0,0,0-.135,1.278A7.2,7.2,0,0,0,13.272,20.47Zm-4.5-7.2a4.5,4.5,0,1,1,4.5,4.5,4.5,4.5,0,0,1-4.5-4.5ZM21.488,8.1h-2.1a.9.9,0,0,1-.9-.9V5.1a.9.9,0,0,1,.9-.9h2.1a.9.9,0,0,1,.9.9V7.2a.9.9,0,0,1-.9.9Z" transform="translate(1052.4 2483.4)"/>
  </g>
</svg>
